HIERARCHY
ROOT Hips
{
  OFFSET 5.84602e-005 68.8428 3.50346
  CHANNELS 6 Xposition Yposition Zposition Zrotation Xrotation Yrotation
  JOINT Spine
  {
    OFFSET 0 8.597 -4.6522
    CHANNELS 3 Zrotation Xrotation Yrotation
    JOINT Spine1
    {
      OFFSET 0 7.8454 0.4098
      CHANNELS 3 Zrotation Xrotation Yrotation
      JOINT Spine2
      {
        OFFSET 0 9.7078 -2.1609
        CHANNELS 3 Zrotation Xrotation Yrotation
        JOINT Neck
        {
          OFFSET 0 21.8761 -0.4549
          CHANNELS 3 Zrotation Xrotation Yrotation
          JOINT Head
          {
            OFFSET 0 12.3537 3.3602
            CHANNELS 3 Zrotation Xrotation Yrotation
            End Site
            {
              OFFSET 0.0001 18.9506 0.5657
            }
          }
        }
        JOINT LeftShoulder
        {
          OFFSET 2.2086 21.1115 7.2329
          CHANNELS 3 Zrotation Xrotation Yrotation
          JOINT LeftArm
          {
            OFFSET 13.1193 3.0282 -4.8998
            CHANNELS 3 Zrotation Xrotation Yrotation
            JOINT LeftForeArm
            {
              OFFSET 27.4081 -0.0973053 -0.2375
              CHANNELS 3 Zrotation Xrotation Yrotation
              JOINT LeftHand
              {
                OFFSET 22.8641 0.0662994 -0.1369
                CHANNELS 3 Zrotation Xrotation Yrotation
                JOINT LeftHandIndex1
                {
                  OFFSET 8.8614 0.775009 2.4612
                  CHANNELS 3 Zrotation Xrotation Yrotation
                  JOINT LeftHandIndex2
                  {
                    OFFSET 3.3146 -0.808304 0.5841
                    CHANNELS 3 Zrotation Xrotation Yrotation
                    JOINT LeftHandIndex3
                    {
                      OFFSET 2.2628 -0.552002 0.3989
                      CHANNELS 3 Zrotation Xrotation Yrotation
                      End Site
                      {
                        OFFSET 1.6102 -0.4807 0.2612
                      }
                    }
                  }
                }
                JOINT LeftHandMiddle1
                {
                  OFFSET 8.9937 0.895004 0.2143
                  CHANNELS 3 Zrotation Xrotation Yrotation
                  JOINT LeftHandMiddle2
                  {
                    OFFSET 4.0984 0.0113983 -0.0242
                    CHANNELS 3 Zrotation Xrotation Yrotation
                    JOINT LeftHandMiddle3
                    {
                      OFFSET 2.2716 0.00689697 -0.0138001
                      CHANNELS 3 Zrotation Xrotation Yrotation
                      End Site
                      {
                        OFFSET 2.0404 -0.1441 0.0027
                      }
                    }
                  }
                }
                JOINT LeftHandRing1
                {
                  OFFSET 8.5234 0.597198 -2.0164
                  CHANNELS 3 Zrotation Xrotation Yrotation
                  JOINT LeftHandRing2
                  {
                    OFFSET 3.7188 -0.188293 -0.2328
                    CHANNELS 3 Zrotation Xrotation Yrotation
                    JOINT LeftHandRing3
                    {
                      OFFSET 2.1191 -0.106598 -0.1332
                      CHANNELS 3 Zrotation Xrotation Yrotation
                      End Site
                      {
                        OFFSET 1.8737 -0.2304 -0.0886
                      }
                    }
                  }
                }
                JOINT LeftHandPinky1
                {
                  OFFSET 7.9094 -0.601089 -3.4825
                  CHANNELS 3 Zrotation Xrotation Yrotation
                  JOINT LeftHandPinky2
                  {
                    OFFSET 2.2874 -0.477005 -0.6314
                    CHANNELS 3 Zrotation Xrotation Yrotation
                    JOINT LeftHandPinky3
                    {
                      OFFSET 1.6774 -0.349396 -0.4633
                      CHANNELS 3 Zrotation Xrotation Yrotation
                      End Site
                      {
                        OFFSET 1.4888 -0.4091 -0.3416
                      }
                    }
                  }
                }
                JOINT LeftHandThumb1
                {
                  OFFSET 1.833 -1.3875 1.3896
                  CHANNELS 3 Zrotation Xrotation Yrotation
                  JOINT LeftHandThumb2
                  {
                    OFFSET 3.4129 -1.121 2.5732
                    CHANNELS 3 Zrotation Xrotation Yrotation
                    JOINT LeftHandThumb3
                    {
                      OFFSET 2.2474 -0.804199 1.6192
                      CHANNELS 3 Zrotation Xrotation Yrotation
                      End Site
                      {
                        OFFSET 1.6527 -0.5689 1.1317
                      }
                    }
                  }
                }
              }
            }
          }
        }
        JOINT RightShoulder
        {
          OFFSET -2.2086 21.1115 7.2329
          CHANNELS 3 Zrotation Xrotation Yrotation
          JOINT RightArm
          {
            OFFSET -13.1216 3.0287 -4.9007
            CHANNELS 3 Zrotation Xrotation Yrotation
            JOINT RightForeArm
            {
              OFFSET -27.4081 -0.0973053 -0.2375
              CHANNELS 3 Zrotation Xrotation Yrotation
              JOINT RightHand
              {
                OFFSET -22.8641 0.0664063 -0.1369
                CHANNELS 3 Zrotation Xrotation Yrotation
                JOINT RightHandIndex1
                {
                  OFFSET -8.8614 0.774994 2.4612
                  CHANNELS 3 Zrotation Xrotation Yrotation
                  JOINT RightHandIndex2
                  {
                    OFFSET -3.3146 -0.808304 0.5841
                    CHANNELS 3 Zrotation Xrotation Yrotation
                    JOINT RightHandIndex3
                    {
                      OFFSET -2.2628 -0.552002 0.3989
                      CHANNELS 3 Zrotation Xrotation Yrotation
                      End Site
                      {
                        OFFSET -1.6102 -0.4807 0.2612
                      }
                    }
                  }
                }
                JOINT RightHandMiddle1
                {
                  OFFSET -8.9937 0.894989 0.2143
                  CHANNELS 3 Zrotation Xrotation Yrotation
                  JOINT RightHandMiddle2
                  {
                    OFFSET -4.0984 0.0113983 -0.0242
                    CHANNELS 3 Zrotation Xrotation Yrotation
                    JOINT RightHandMiddle3
                    {
                      OFFSET -2.2716 0.00691223 -0.0138001
                      CHANNELS 3 Zrotation Xrotation Yrotation
                      End Site
                      {
                        OFFSET -2.0404 -0.1441 0.0027
                      }
                    }
                  }
                }
                JOINT RightHandRing1
                {
                  OFFSET -8.5234 0.597198 -2.0164
                  CHANNELS 3 Zrotation Xrotation Yrotation
                  JOINT RightHandRing2
                  {
                    OFFSET -3.7188 -0.188309 -0.2328
                    CHANNELS 3 Zrotation Xrotation Yrotation
                    JOINT RightHandRing3
                    {
                      OFFSET -2.1191 -0.106598 -0.1332
                      CHANNELS 3 Zrotation Xrotation Yrotation
                      End Site
                      {
                        OFFSET -1.8737 -0.2304 -0.0886
                      }
                    }
                  }
                }
                JOINT RightHandPinky1
                {
                  OFFSET -7.9094 -0.601105 -3.4825
                  CHANNELS 3 Zrotation Xrotation Yrotation
                  JOINT RightHandPinky2
                  {
                    OFFSET -2.2874 -0.477005 -0.6314
                    CHANNELS 3 Zrotation Xrotation Yrotation
                    JOINT RightHandPinky3
                    {
                      OFFSET -1.6774 -0.349396 -0.4633
                      CHANNELS 3 Zrotation Xrotation Yrotation
                      End Site
                      {
                        OFFSET -1.4888 -0.4091 -0.3416
                      }
                    }
                  }
                }
                JOINT RightHandThumb1
                {
                  OFFSET -1.833 -1.38751 1.3896
                  CHANNELS 3 Zrotation Xrotation Yrotation
                  JOINT RightHandThumb2
                  {
                    OFFSET -3.41299 -1.12099 2.5732
                    CHANNELS 3 Zrotation Xrotation Yrotation
                    JOINT RightHandThumb3
                    {
                      OFFSET -2.24741 -0.804108 1.6192
                      CHANNELS 3 Zrotation Xrotation Yrotation
                      End Site
                      {
                        OFFSET -1.6527 -0.5689 1.1317
                      }
                    }
                  }
                }
              }
            }
          }
        }
      }
    }
  }
  JOINT RightUpLeg
  {
    OFFSET -9.1966 3.8861 -0.7581
    CHANNELS 3 Zrotation Xrotation Yrotation
    JOINT RightLeg
    {
      OFFSET -0.7359 -41.0265 0
      CHANNELS 3 Zrotation Xrotation Yrotation
      JOINT RightFoot
      {
        OFFSET 0 -40.2855 0
        CHANNELS 3 Zrotation Xrotation Yrotation
        JOINT RightToeBase
        {
          OFFSET 0 -5.6122 11.7359
          CHANNELS 3 Zrotation Xrotation Yrotation
          End Site
          {
            OFFSET 0 0 7.8731
          }
        }
      }
    }
  }
  JOINT LeftUpLeg
  {
    OFFSET 9.1965 3.8864 -0.7581
    CHANNELS 3 Zrotation Xrotation Yrotation
    JOINT LeftLeg
    {
      OFFSET 0.7359 -41.0268 0
      CHANNELS 3 Zrotation Xrotation Yrotation
      JOINT LeftFoot
      {
        OFFSET 0 -40.2855 0
        CHANNELS 3 Zrotation Xrotation Yrotation
        JOINT LeftToeBase
        {
          OFFSET 0 -5.6122 11.7359
          CHANNELS 3 Zrotation Xrotation Yrotation
          End Site
          {
            OFFSET 0 0 7.8731
          }
        }
      }
    }
  }
}
MOTION
Frames:	5
Frame Time:	0.0333333
39.7391 -3.9236 6.31145 -0 -25.0011 -0 -0.0192056 -1.04722 -0.128886 -0.040778 -2.0944 -0.258188 -0.040778 -2.0944 -0.258188 10.6442 19.9452 9.32874 -2.67023e-006 12.3713 -1.10072e-006 -11.7793 6.81655 -3.05637 -65.6061 -10.8136 -42.349 14.6379 31.0135 -19.2924 -54.3054 9.90114 3.62628 -2.78034e-007 2.36974e-007 2.2004e-007 -5.56067e-007 4.73949e-007 4.4008e-007 -2.78034e-007 2.36974e-007 2.2004e-007 -2.78034e-007 2.36974e-007 2.2004e-007 -0.0145643 -9.30121e-005 1.47741e-006 -2.78031e-007 2.36946e-007 2.20071e-007 -2.78034e-007 2.36974e-007 2.2004e-007 -0.0188042 -0.00117555 5.77677e-005 -2.78028e-007 2.36939e-007 2.20082e-007 -2.78034e-007 2.36974e-007 2.2004e-007 -0.0122814 -0.00325288 0.000678822 -2.78024e-007 2.36953e-007 2.20073e-007 -2.78034e-007 2.36974e-007 2.2004e-007 -5.56067e-007 4.73949e-007 4.4008e-007 -2.78034e-007 2.36974e-007 2.2004e-007 11.9313 6.69054 3.40852 65.2104 -11.0781 41.9936 -15.0193 30.8447 19.7689 54.6406 9.89304 -3.97145 2.75307e-007 2.40082e-007 -2.203e-007 5.50615e-007 4.80165e-007 -4.40601e-007 5.50615e-007 4.80165e-007 -4.40601e-007 2.75307e-007 2.40082e-007 -2.203e-007 0.0150077 -9.53779e-005 -1.19663e-006 5.5061e-007 4.80107e-007 -4.40664e-007 2.75307e-007 2.40082e-007 -2.203e-007 0.0189723 -0.00118771 -6.13558e-005 5.50604e-007 4.80092e-007 -4.40686e-007 2.75307e-007 2.40082e-007 -2.203e-007 0.0122559 -0.00324136 -0.00066972 2.21202e-007 1.38102e-006 8.19247e-008 2.75307e-007 2.40082e-007 -2.203e-007 5.50615e-007 4.80165e-007 -4.40601e-007 5.50615e-007 4.80165e-007 -4.40601e-007 -52.6328 -50.9398 -122.028 1.80792 50.7413 -2.89648 -3.54033 14.7306 -6.53749 -9.01065e-007 -1.86948e-006 -2.36389e-006 52.6183 -50.9489 121.992 -1.84813 50.7491 2.90395 3.53931 14.7373 6.54457 3.18055e-015 -6.36111e-015 -0 
39.7391 -3.9236 6.37453 -0 -25.0011 -0 -0.0185762 -1.1889 -0.129045 -0.0398443 -2.37777 -0.25856 -0.0398443 -2.37776 -0.25856 10.5726 18.8593 9.54437 3.22058e-006 11.2875 2.99943e-007 -11.9077 7.34979 -2.6053 -65.7344 -10.6542 -42.2954 14.8154 30.9464 -19.5868 -54.4992 9.97552 3.92216 -6.36111e-015 -3.97569e-015 -7.95139e-016 -1.14244e-006 2.17714e-006 5.23854e-007 2.78049e-007 -2.36963e-007 -2.20036e-007 -6.36111e-015 -3.97569e-015 -7.95139e-016 -0.0146129 -8.65085e-005 1.19172e-006 2.78046e-007 -2.36935e-007 -2.20066e-007 -6.36111e-015 -3.97569e-015 -7.95139e-016 -0.0186667 -0.00116609 5.37163e-005 2.78043e-007 -2.36928e-007 -2.20077e-007 -6.36111e-015 -3.97569e-015 -7.95139e-016 -0.0122439 -0.00324556 0.000673714 2.78039e-007 -2.36942e-007 -2.20069e-007 -6.36111e-015 -3.97569e-015 -7.95139e-016 -1.14244e-006 2.17714e-006 5.23854e-007 2.78049e-007 -2.36963e-007 -2.20036e-007 12.0505 7.21273 2.94836 65.3405 -10.9148 41.9403 -15.2008 30.7736 20.0676 54.846 9.97305 -4.27888 5.50646e-007 4.80144e-007 -4.40589e-007 8.25969e-007 7.20215e-007 -6.60883e-007 5.50646e-007 4.80144e-007 -4.40589e-007 5.50646e-007 4.80144e-007 -4.40589e-007 0.0150036 -8.84977e-005 2.26887e-006 5.50642e-007 4.80086e-007 -4.40652e-007 5.50646e-007 4.80144e-007 -4.40589e-007 0.0189957 -0.00118965 -5.92584e-005 5.50636e-007 4.80071e-007 -4.40674e-007 5.50646e-007 4.80144e-007 -4.40589e-007 0.0122466 -0.00323549 -0.000680247 5.50628e-007 4.80101e-007 -4.40655e-007 5.50646e-007 4.80144e-007 -4.40589e-007 8.25969e-007 7.20215e-007 -6.60883e-007 5.50646e-007 4.80144e-007 -4.40589e-007 -52.6328 -50.9398 -122.028 1.80796 50.7413 -2.89652 -3.54033 14.7306 -6.53749 1.32968e-006 -2.36389e-006 1.86948e-006 52.6183 -50.9489 121.992 -1.84812 50.7491 2.90392 3.53933 14.7373 6.54456 1.80214e-006 -3.73877e-006 4.72917e-006 
39.7391 -3.9236 6.43761 -0 -25.0011 -0 -0.0179515 -1.33053 -0.129184 -0.0389203 -2.66103 -0.258889 -0.0389203 -2.66103 -0.25889 10.5054 17.7698 9.75799 -4.70766e-007 10.2003 6.6607e-007 -12.0405 7.88208 -2.15247 -65.8627 -10.495 -42.2414 14.9923 30.8786 -19.8808 -54.6935 10.0489 4.2183 2.22456e-006 -1.89553e-006 -1.76028e-006 8.34209e-007 -7.10825e-007 -6.60105e-007 8.34209e-007 -7.10825e-007 -6.60106e-007 2.22456e-006 -1.89553e-006 -1.76028e-006 -0.0145627 -8.66089e-005 6.81121e-007 8.34201e-007 -7.10741e-007 -6.60196e-007 2.22456e-006 -1.89553e-006 -1.76028e-006 -0.0187944 -0.00118425 5.79018e-005 8.34192e-007 -7.10717e-007 -6.60231e-007 2.22456e-006 -1.89553e-006 -1.76028e-006 -0.0122055 -0.00323278 0.000671701 8.3418e-007 -7.10761e-007 -6.60204e-007 2.22456e-006 -1.89553e-006 -1.76028e-006 8.34209e-007 -7.10825e-007 -6.60105e-007 8.34209e-007 -7.10825e-007 -6.60106e-007 12.174 7.73403 2.48659 65.4708 -10.7517 41.8867 -15.3817 30.7018 20.3658 55.0519 10.052 -4.58668 -5.5069e-007 -4.80101e-007 4.40584e-007 1.65207e-006 1.4403e-006 -1.32175e-006 -1.37673e-006 -1.20025e-006 1.10146e-006 -5.5069e-007 -4.80101e-007 4.40584e-007 0.0149869 -9.00014e-005 -2.03167e-006 -1.37671e-006 -1.20011e-006 1.10162e-006 -5.5069e-007 -4.80101e-007 4.40584e-007 0.0190011 -0.00118959 -5.6627e-005 -1.3767e-006 -1.20007e-006 1.10167e-006 -5.5069e-007 -4.80101e-007 4.40584e-007 0.0122925 -0.00325015 -0.000675513 -1.37668e-006 -1.20015e-006 1.10163e-006 -5.5069e-007 -4.80101e-007 4.40584e-007 1.65207e-006 1.4403e-006 -1.32175e-006 -1.37673e-006 -1.20025e-006 1.10146e-006 -52.6328 -50.9398 -122.028 1.80795 50.7413 -2.89653 -3.54033 14.7306 -6.5375 -9.01065e-007 -1.86948e-006 -2.36388e-006 52.6182 -50.9489 121.992 -1.84812 50.749 2.90391 3.53928 14.7373 6.54456 -4.27492e-007 -4.23397e-006 4.95195e-007 
39.7391 -3.9236 6.50069 -0 -25.0011 -0 -0.0173241 -1.47204 -0.129332 -0.0379921 -2.944 -0.259237 -0.0379921 -2.94399 -0.259238 10.4428 16.6768 9.96956 -5.37202e-007 9.10993 -1.58078e-006 -12.1777 8.41312 -1.69791 -65.9912 -10.3358 -42.1872 15.1687 30.81 -20.1743 -54.8882 10.1213 4.51474 5.56193e-007 -4.73819e-007 -4.40077e-007 2.78097e-007 -2.3691e-007 -2.20039e-007 5.56193e-007 -4.73819e-007 -4.40077e-007 5.56193e-007 -4.73819e-007 -4.40077e-007 -0.0145997 -9.18898e-005 2.1329e-006 5.56188e-007 -4.73763e-007 -4.40138e-007 5.56193e-007 -4.73819e-007 -4.40077e-007 -0.0187675 -0.00117603 5.75079e-005 3.10064e-007 -1.46571e-006 1.38729e-007 5.56193e-007 -4.73819e-007 -4.40077e-007 -0.0122316 -0.00324274 0.000671748 3.09389e-007 -1.46549e-006 1.38744e-007 5.56193e-007 -4.73819e-007 -4.40077e-007 2.78097e-007 -2.3691e-007 -2.20039e-007 5.56193e-007 -4.73819e-007 -4.40077e-007 12.3019 8.25414 2.02321 65.6011 -10.5887 41.8328 -15.5621 30.6291 20.6635 55.2583 10.1298 -4.89481 -2.75373e-007 -2.40019e-007 2.20294e-007 -6.36111e-015 3.18055e-015 -7.95139e-016 -2.75373e-007 -2.40019e-007 2.20294e-007 -2.75373e-007 -2.40019e-007 2.20294e-007 0.0150351 -9.71053e-005 -2.49291e-006 -2.75371e-007 -2.3999e-007 2.20326e-007 -2.75373e-007 -2.40019e-007 2.20294e-007 0.019045 -0.00118928 -5.35844e-005 -2.75368e-007 -2.39983e-007 2.20337e-007 -2.75373e-007 -2.40019e-007 2.20294e-007 0.0123022 -0.00325838 -0.000677207 -2.75364e-007 -2.39997e-007 2.20328e-007 -2.75373e-007 -2.40019e-007 2.20294e-007 -6.36111e-015 3.18055e-015 -7.95139e-016 -2.75373e-007 -2.40019e-007 2.20294e-007 -52.6328 -50.9398 -122.028 1.80793 50.7413 -2.8965 -3.54032 14.7305 -6.5375 6.36111e-015 9.54166e-015 -0 52.6183 -50.9489 121.992 -1.84811 50.7491 2.90389 3.53931 14.7373 6.54456 3.1307e-006 -1.37419e-006 6.59855e-006 
39.7391 -3.9236 6.56377 -0 -25.0011 -0 -0.0166995 -1.61332 -0.129459 -0.0370695 -3.22663 -0.259544 -0.0370696 -3.22662 -0.259544 10.3847 15.5809 10.1793 8.0538e-007 8.0165 3.36605e-007 -12.3192 8.94291 -1.24156 -66.1197 -10.1768 -42.1326 15.3445 30.7405 -20.4673 -55.0833 10.1927 4.81152 -2.78129e-007 2.36867e-007 2.20047e-007 -2.22503e-006 1.89494e-006 1.76038e-006 1.11251e-006 -9.47469e-007 -8.80188e-007 -2.78129e-007 2.36867e-007 2.20047e-007 -0.0146244 -9.11479e-005 8.17617e-006 1.1125e-006 -9.47357e-007 -8.8031e-007 -2.78129e-007 2.36867e-007 2.20047e-007 -0.0188004 -0.00117538 5.62011e-005 1.11249e-006 -9.47326e-007 -8.80355e-007 -2.78129e-007 2.36867e-007 2.20047e-007 -0.0123696 -0.00327479 0.000684873 1.11248e-006 -9.47383e-007 -8.80322e-007 -2.78129e-007 2.36867e-007 2.20047e-007 -2.22503e-006 1.89494e-006 1.76038e-006 1.11251e-006 -9.47469e-007 -8.80188e-007 12.4342 8.77305 1.55815 65.7314 -10.4258 41.7785 -15.7419 30.5557 20.9608 55.4651 10.2065 -5.20327 5.50814e-007 4.79954e-007 -4.40602e-007 2.47866e-006 2.15979e-006 -1.98271e-006 2.20325e-006 1.91982e-006 -1.76241e-006 5.50814e-007 4.79954e-007 -4.40602e-007 0.0149946 -9.15569e-005 -1.71416e-006 1.87354e-006 2.82035e-006 -1.23458e-006 5.50814e-007 4.79954e-007 -4.40602e-007 0.019001 -0.001187 -6.08161e-005 2.20321e-006 1.91953e-006 -1.76275e-006 5.50814e-007 4.79954e-007 -4.40602e-007 0.0122631 -0.00324582 -0.000674006 2.20318e-006 1.91964e-006 -1.76267e-006 5.50814e-007 4.79954e-007 -4.40602e-007 2.47866e-006 2.15979e-006 -1.98271e-006 2.20325e-006 1.91982e-006 -1.76241e-006 -52.6328 -50.9398 -122.028 1.80794 50.7414 -2.89652 -3.54033 14.7305 -6.5375 -2.23074e-006 4.94404e-007 -4.23337e-006 52.6182 -50.9489 121.992 -1.84813 50.749 2.90393 3.53932 14.7374 6.54456 1.01808e-005 -2.00388e-006 1.7795e-006 
